<svg width="32" height="32" viewBox="0 0 32 32" fill="none" xmlns="http://www.w3.org/2000/svg">
  <defs>
    <linearGradient id="gradient" x1="0%" y1="0%" x2="100%" y2="100%">
      <stop offset="0%" style="stop-color:#3B82F6;stop-opacity:1" />
      <stop offset="50%" style="stop-color:#8B5CF6;stop-opacity:1" />
      <stop offset="100%" style="stop-color:#EC4899;stop-opacity:1" />
    </linearGradient>
  </defs>
  
  <!-- Background circle -->
  <circle cx="16" cy="16" r="15" fill="url(#gradient)" stroke="white" stroke-width="2"/>
  
  <!-- AI Brain/Neural Network representation -->
  <g fill="white" opacity="0.9">
    <!-- Central node -->
    <circle cx="16" cy="16" r="2"/>
    
    <!-- Outer nodes -->
    <circle cx="8" cy="8" r="1.5"/>
    <circle cx="24" cy="8" r="1.5"/>
    <circle cx="8" cy="24" r="1.5"/>
    <circle cx="24" cy="24" r="1.5"/>
    <circle cx="16" cy="6" r="1.5"/>
    <circle cx="16" cy="26" r="1.5"/>
    <circle cx="6" cy="16" r="1.5"/>
    <circle cx="26" cy="16" r="1.5"/>
    
    <!-- Connection lines -->
    <path d="M 16 16 L 8 8" stroke="white" stroke-width="1" opacity="0.6"/>
    <path d="M 16 16 L 24 8" stroke="white" stroke-width="1" opacity="0.6"/>
    <path d="M 16 16 L 8 24" stroke="white" stroke-width="1" opacity="0.6"/>
    <path d="M 16 16 L 24 24" stroke="white" stroke-width="1" opacity="0.6"/>
    <path d="M 16 16 L 16 6" stroke="white" stroke-width="1" opacity="0.6"/>
    <path d="M 16 16 L 16 26" stroke="white" stroke-width="1" opacity="0.6"/>
    <path d="M 16 16 L 6 16" stroke="white" stroke-width="1" opacity="0.6"/>
    <path d="M 16 16 L 26 16" stroke="white" stroke-width="1" opacity="0.6"/>
  </g>
</svg> 